<?xml version="1.0" encoding="UTF-8" standalone="no"?>
<svg
   data-name="Layer 1"
   width="588.38464"
   height="518.8999"
   viewBox="0 0 588.38464 518.8999"
   version="1.1"
   id="svg140"
   sodipodi:docname="logo.svg"
   inkscape:version="1.2 (dc2aedaf03, 2022-05-15)"
   xmlns:inkscape="http://www.inkscape.org/namespaces/inkscape"
   xmlns:sodipodi="http://sodipodi.sourceforge.net/DTD/sodipodi-0.dtd"
   xmlns="http://www.w3.org/2000/svg"
   xmlns:svg="http://www.w3.org/2000/svg">
  <defs
     id="defs144" />
  <sodipodi:namedview
     id="namedview142"
     pagecolor="#ffffff"
     bordercolor="#000000"
     borderopacity="0.25"
     inkscape:showpageshadow="2"
     inkscape:pageopacity="0.0"
     inkscape:pagecheckerboard="0"
     inkscape:deskcolor="#d1d1d1"
     showgrid="false"
     inkscape:zoom="0.76717512"
     inkscape:cx="255.48274"
     inkscape:cy="163.58716"
     inkscape:window-width="1920"
     inkscape:window-height="991"
     inkscape:window-x="-9"
     inkscape:window-y="-9"
     inkscape:window-maximized="1"
     inkscape:current-layer="svg140" />
  <path
     d="m 497.23988,455.45127 -68.32479,-48.32553 c 23.04357,-22.44766 44.00226,-54.41107 64.04589,-90.55092 l 68.32473,48.32553 c -27.30158,31.00648 -50.429,61.4359 -64.04583,90.55092 z"
     fill="#6c63ff"
     id="path68" />
  <circle
     cx="497.25873"
     cy="383.83456"
     r="20.16571"
     fill="#ffffff"
     id="circle70" />
  <path
     d="m 167.6477,234.93056 h -7.5 a 0.99435,0.99435 0 0 0 -0.99435,0.99435 v 3.292 a 0.99434,0.99434 0 0 0 0.99435,0.99434 h 1.24285 v 4.93249 h 5.01427 v -4.93249 h 1.24285 a 0.99435,0.99435 0 0 0 0.99435,-0.99434 v -3.292 a 0.99436,0.99436 0 0 0 -0.99432,-0.99435 z"
     fill="#e6e6e6"
     id="path72" />
  <path
     d="m 175.15974,265.05861 a 38.55843,38.55843 0 0 1 -6.708,-22.86093 0.81323,0.81323 0 0 0 -0.63476,-0.81152 v -1.42245 h -7.921 v 1.40268 h -0.10914 a 0.81275,0.81275 0 0 0 -0.8117,0.81381 q 0,0.0296 0.002,0.0592 a 35.18922,35.18922 0 0 1 -6.32157,23.40264 2.23989,2.23989 0 0 0 -0.40537,1.35741 l 0.86611,26.79155 a 2.31928,2.31928 0 0 0 2.29944,2.23846 h 17.91606 a 2.32008,2.32008 0 0 0 2.30082,-2.27794 l 0.33376,-26.0124 a 4.69456,4.69456 0 0 0 -0.80688,-2.68047 z"
     fill="#6c63ff"
     id="path74" />
  <path
     d="m 166.08423,236.00321 a 2.145265,2.145265 0 0 1 -4.29053,0"
     opacity="0.2"
     style="isolation:isolate"
     id="path76" />
  <rect
     x="156.54596"
     y="270.22055"
     width="15.12429"
     height="10.08286"
     fill="#ffffff"
     id="rect78" />
  <path
     d="m 404.9877,339.59423 h -14.03927 a 1.86134,1.86134 0 0 0 -1.86134,1.86133 v 6.16226 a 1.86134,1.86134 0 0 0 1.86134,1.86132 h 2.32651 v 9.23317 h 9.38625 v -9.23317 h 2.32651 a 1.86132,1.86132 0 0 0 1.86132,-1.86132 v -6.16226 a 1.86133,1.86133 0 0 0 -1.86132,-1.86133 z"
     fill="#e6e6e6"
     id="path80" />
  <path
     d="m 419.04954,395.99119 a 72.178,72.178 0 0 1 -12.55683,-42.79358 1.52224,1.52224 0 0 0 -1.1882,-1.51909 v -2.6627 h -14.82735 v 2.62568 h -0.2043 a 1.52142,1.52142 0 0 0 -1.51944,1.5234 q 8e-5,0.0554 0.004,0.11073 1.75218,24.42493 -11.83339,43.80761 a 4.19289,4.19289 0 0 0 -0.75883,2.54095 l 1.62129,50.15132 a 4.34146,4.34146 0 0 0 4.30434,4.19019 h 33.53722 a 4.343,4.343 0 0 0 4.30692,-4.26409 l 0.62479,-48.69283 a 8.7878,8.7878 0 0 0 -1.5104,-5.01759 z"
     fill="#6c63ff"
     id="path82" />
  <path
     d="m 402.06102,341.60213 a 4.01574,4.01574 0 0 1 -8.03148,0"
     opacity="0.2"
     style="isolation:isolate"
     id="path84" />
  <path
     d="m 413.74053,412.64987 h -29.19155 a 2.997,2.997 0 0 0 -2.96218,3.45275 l 4.41126,28.67321 h 25.33007 l 5.3581,-28.5766 a 2.9971,2.9971 0 0 0 -2.9457,-3.54936 z"
     fill="#ffffff"
     id="path86" />
  <path
     d="m 364.93131,455.37227 h -83.68773 c 5.85094,-31.63336 4.50486,-69.83172 0,-110.91142 h 83.68773 c -4.385,41.07982 -5.69538,79.27812 0,110.91142 z"
     fill="#6c63ff"
     id="path88" />
  <circle
     cx="323.59161"
     cy="396.89169"
     r="20.16571"
     fill="#ffffff"
     id="circle90" />
  <polygon
     points="352.986,297.724 331.637,285.768 322.243,328.466 341.03,326.758 "
     fill="#ffb8b8"
     id="polygon92"
     transform="translate(-299.61469,-222.14761)" />
  <path
     d="m 195.04574,186.02642 v 0 a 10.59328,10.59328 0 0 0 -9.20188,-14.51664 l -29.16988,-1.73941 -4.2949,14.28206 30.02882,8.24691 a 10.59326,10.59326 0 0 0 12.63784,-6.27292 z"
     fill="#ffb8b8"
     id="path94" />
  <path
     d="M 163.72397,192.53923 163.40304,165.73969 98.610181,155.40113 48.694841,98.15356 A 16.33816,16.33816 0 0 0 27.400561,95.2417 v 0 a 16.33815,16.33815 0 0 0 -2.84636,24.922 l 41.17966,50.67767 z"
     fill="#575a89"
     id="path96"
     style="fill:#6c63ff;fill-opacity:1" />
  <path
     d="M 8.1108308,494.01907 H 25.190151 l 42.36316,-191.53337 43.887369,59.16871 25.619,128.09483 h 16.22535 L 149.86917,352.26079 92.653471,205.37871 h -56.36177 c -15.40224,27.87449 -27.4846202,56.60826 -13.66345,86.25052 z"
     fill="#2f2e41"
     id="path98" />
  <path
     d="m 126.5898,505.65267 a 4.45733,4.45733 0 0 0 3.4756,5.71828 l 41.79324,7.41672 a 6.87646,6.87646 0 0 0 7.8008,-4.71314 v 0 a 6.83384,6.83384 0 0 0 -3.34222,-8.12572 63.9022,63.9022 0 0 1 -23.04833,-20.0382 c -4.59335,4.27726 -9.7273,3.875 -15.179,0.72281 l -5.78247,0.72281 z"
     fill="#2f2e41"
     id="path100" />
  <path
     d="m 0.20290081,505.65267 a 4.45733,4.45733 0 0 0 3.47559999,5.71828 l 41.7932402,7.41672 a 6.87646,6.87646 0 0 0 7.8008,-4.71314 v 0 a 6.83384,6.83384 0 0 0 -3.34222,-8.12572 63.9022,63.9022 0 0 1 -23.04833,-20.0382 c -4.59335,4.27726 -9.7273,3.875 -15.179,0.72281 l -5.7824702,0.72281 z"
     fill="#2f2e41"
     id="path102" />
  <circle
     cx="53.798"
     cy="62.339481"
     r="23.911039"
     fill="#ffb8b8"
     id="circle104" />
  <path
     d="m 32.448851,211.78345 62.33946,-1.70789 -18.30772,-57.61963 c 11.37738,-18.23924 -0.073,-36.46 -16.27789,-54.67684 l -12.80948,-8.53965 -20.49517,-1.70793 v 0 a 50.3141,50.3141 0 0 0 -13.54915,35.0504 c 0.4058,27.82656 5.33293,58.11865 19.09995,89.20154 z"
     fill="#575a89"
     id="path106"
     style="fill:#6c63ff;fill-opacity:1" />
  <path
     d="m 175.67677,250.56808 v 0 a 10.59327,10.59327 0 0 0 -2.74926,-16.96611 l -26.1337,-13.07429 -9.567,11.441 24.36342,19.395 a 10.59327,10.59327 0 0 0 14.08654,-0.7956 z"
     fill="#ffb8b8"
     id="path108" />
  <path
     d="m 144.31831,244.23414 10.24759,-24.765 -55.501679,-34.99377 -23.37023,-72.268 a 16.33817,16.33817 0 0 0 -18.43188,-11.054 v 0 a 16.33815,16.33815 0 0 0 -12.42089,21.79283 l 17.92341,62.79126 z"
     fill="#575a89"
     id="path110"
     style="fill:#6c63ff;fill-opacity:1" />
  <path
     d="m 14.515581,52.94586 c 0,9.30389 6.04222,23.7124 13.66345,29.8888 5.12781,4.15568 11.90457,3.98066 14.51741,-1.70793 2.68032,-5.83557 11.91945,-19.55229 28.18086,-28.18087 21.67761,-11.50252 -7.68756,-31.18152 -28.18086,-28.18086 -15.39963,2.25485 -28.18086,12.617 -28.18086,28.18086 z"
     fill="#2f2e41"
     id="path112" />
  <circle
     cx="29.032986"
     cy="23.057072"
     r="17.079309"
     fill="#2f2e41"
     id="circle114" />
  <path
     d="M 48.674201,17.07931 A 17.06865,17.06865 0 0 0 32.875841,0.06468 c 0.42437,-0.0316 0.84854,-0.0647 1.28094,-0.0647 a 17.07931,17.07931 0 0 1 0,34.15862 c -0.4324,0 -0.85657,-0.0331 -1.28094,-0.0647 a 17.06869,17.06869 0 0 0 15.79836,-17.01463 z"
     fill="#2f2e41"
     id="path116" />
  <ellipse
     cx="54.224972"
     cy="65.755341"
     rx="3.84284"
     ry="5.1237898"
     fill="#ffb8b8"
     id="ellipse118" />
  <polygon
     points="515.578,418.694 467.529,418.694 467.529,406.752 525.258,406.752 581.559,672.902 837.751,672.902 837.751,684.845 571.879,684.845 "
     fill="#3f3d56"
     id="polygon120"
     transform="translate(-299.61469,-222.14761)" />
  <circle
     cx="311.22632"
     cy="485.72916"
     r="25.591379"
     fill="#3f3d56"
     id="circle122" />
  <circle
     cx="502.30865"
     cy="485.72916"
     r="25.591379"
     fill="#3f3d56"
     id="circle124" />
  <path
     d="M 533.28879,457.07329 H 274.61037 L 228.96904,231.52145 h 347.15137 a 12.2655,12.2655 0 0 1 12.1159,14.16689 l -42.8333,201.0251 a 12.20374,12.20374 0 0 1 -12.11422,10.35985 z M 277.41942,453.6611 h 255.86937 a 8.80568,8.80568 0 0 0 8.74205,-7.47748 l 42.83327,-201.0251 a 8.85014,8.85014 0 0 0 -8.7437,-10.22489 H 233.11098 Z"
     fill="#3f3d56"
     id="path126" />
  <polygon
     points="597.989,455.097 627.879,677.943 624.513,678.499 594.623,455.653 "
     fill="#3f3d56"
     id="polygon128"
     transform="translate(-299.61469,-222.14761)" />
  <polygon
     points="816.36,455.102 819.729,455.648 790.712,676.788 787.343,676.242 "
     fill="#3f3d56"
     id="polygon130"
     transform="translate(-299.61469,-222.14761)" />
  <rect
     x="408.50024"
     y="233.22754"
     width="3.4121799"
     height="222.84575"
     fill="#3f3d56"
     id="rect132" />
  <rect
     x="-295.75549"
     y="247.10756"
     width="3.41219"
     height="330.29568"
     transform="rotate(-89.86127)"
     fill="#3f3d56"
     id="rect134" />
  <rect
     x="260.47195"
     y="402.12015"
     width="290.17789"
     height="3.4122601"
     transform="rotate(-0.39166)"
     fill="#3f3d56"
     id="rect136" />
  <ellipse
     cx="173.0329"
     cy="188.86914"
     rx="18.76701"
     ry="10.23655"
     fill="#3f3d56"
     id="ellipse138" />
</svg>
