<?xml version="1.0" encoding="UTF-8" standalone="no"?>
<!-- Generator: Adobe Illustrator 19.0.0, SVG Export Plug-In . SVG Version: 6.00 Build 0)  -->

<svg
   version="1.1"
   id="Layer_1"
   x="0px"
   y="0px"
   viewBox="0 0 512.662 512.662"
   style="enable-background:new 0 0 512.662 512.662;"
   xml:space="preserve"
   sodipodi:docname="notification-icon.svg"
   inkscape:version="1.2 (dc2aedaf03, 2022-05-15)"
   xmlns:inkscape="http://www.inkscape.org/namespaces/inkscape"
   xmlns:sodipodi="http://sodipodi.sourceforge.net/DTD/sodipodi-0.dtd"
   xmlns="http://www.w3.org/2000/svg"
   xmlns:svg="http://www.w3.org/2000/svg"><defs
   id="defs41" /><sodipodi:namedview
   id="namedview39"
   pagecolor="#ffffff"
   bordercolor="#000000"
   borderopacity="0.25"
   inkscape:showpageshadow="2"
   inkscape:pageopacity="0.0"
   inkscape:pagecheckerboard="0"
   inkscape:deskcolor="#d1d1d1"
   showgrid="false"
   inkscape:zoom="1.5682848"
   inkscape:cx="256.33099"
   inkscape:cy="256.64981"
   inkscape:window-width="1920"
   inkscape:window-height="991"
   inkscape:window-x="-9"
   inkscape:window-y="-9"
   inkscape:window-maximized="1"
   inkscape:current-layer="Layer_1" />
<g
   id="g6"
   style="fill:#cccccc">
	<g
   id="g4"
   style="fill:#cccccc">
		<path
   d="M505.021,5.868c-0.064-0.043-0.085-0.107-0.128-0.149c-0.128-0.107-0.256-0.128-0.384-0.235    c-1.131-0.981-2.475-1.621-3.797-2.325c-0.427-0.213-0.747-0.576-1.195-0.768c-0.064-0.021-0.107-0.021-0.149-0.043    c-0.469-0.192-0.853-0.533-1.323-0.704c-1.771-0.661-3.648-0.875-5.547-1.045c-0.576-0.043-1.131-0.299-1.707-0.299    c-2.475-0.021-4.971,0.384-7.403,1.259L14.055,172.225c-7.445,2.709-12.779,9.323-13.867,17.173    c-1.045,7.851,2.304,15.637,8.768,20.245l141.888,101.355l20.032,140.309c1.237,8.533,7.488,15.488,15.851,17.643    c1.749,0.448,3.541,0.661,5.291,0.661c6.592,0,12.971-3.072,17.045-8.533l50.347-67.093l132.032,113.237    c3.947,3.371,8.875,5.141,13.909,5.141c2.389,0,4.779-0.405,7.125-1.216c7.168-2.56,12.48-8.768,13.845-16.277l85.995-468.928    C513.725,18.262,510.738,10.71,505.021,5.868z M240.125,348.396l-1.536,2.219l-32.747,43.669l-12.395-86.827l185.109-160.448    L240.125,348.396z"
   id="path2"
   style="fill:#cccccc" />
	</g>
</g>
<g
   id="g8"
   style="fill:#cccccc">
</g>
<g
   id="g10"
   style="fill:#cccccc">
</g>
<g
   id="g12"
   style="fill:#cccccc">
</g>
<g
   id="g14"
   style="fill:#cccccc">
</g>
<g
   id="g16"
   style="fill:#cccccc">
</g>
<g
   id="g18"
   style="fill:#cccccc">
</g>
<g
   id="g20"
   style="fill:#cccccc">
</g>
<g
   id="g22"
   style="fill:#cccccc">
</g>
<g
   id="g24"
   style="fill:#cccccc">
</g>
<g
   id="g26"
   style="fill:#cccccc">
</g>
<g
   id="g28"
   style="fill:#cccccc">
</g>
<g
   id="g30"
   style="fill:#cccccc">
</g>
<g
   id="g32"
   style="fill:#cccccc">
</g>
<g
   id="g34"
   style="fill:#cccccc">
</g>
<g
   id="g36"
   style="fill:#cccccc">
</g>
</svg>
